<svg width="100%" height="100%" id="svg" viewBox="0 0 1440 490" xmlns="http://www.w3.org/2000/svg" class="transition duration-300 ease-in-out delay-150"><defs><linearGradient id="gradient" x1="74%" y1="94%" x2="26%" y2="6%"><stop offset="5%" stop-color="#858ae3"></stop><stop offset="95%" stop-color="#f5f5f5"></stop></linearGradient></defs><path d="M 0,500 L 0,125 C 94.32051282051285,84.29615384615386 188.6410256410257,43.5923076923077 274,64 C 359.3589743589743,84.4076923076923 435.75641025641016,165.92692307692306 511,222 C 586.2435897435898,278.07307692307694 660.3333333333334,308.7 730,325 C 799.6666666666666,341.3 864.9102564102564,343.273076923077 950,369 C 1035.0897435897436,394.726923076923 1140.025641025641,444.2076923076923 1225,470 C 1309.974358974359,495.7923076923077 1374.9871794871794,497.8961538461539 1440,500 L 1440,500 L 0,500 Z" stroke="none" stroke-width="0" fill="url(#gradient)" fill-opacity="0.53" class="transition-all duration-300 ease-in-out delay-150 path-0"></path><defs><linearGradient id="gradient" x1="74%" y1="94%" x2="26%" y2="6%"><stop offset="5%" stop-color="#858ae3"></stop><stop offset="95%" stop-color="#f5f5f5"></stop></linearGradient></defs><path d="M 0,500 L 0,291 C 78.43076923076924,300.8115384615385 156.8615384615385,310.62307692307695 231,333 C 305.1384615384615,355.37692307692305 374.9846153846154,390.3192307692307 460,400 C 545.0153846153846,409.6807692307693 645.2,394.1000000000001 733,407 C 820.8,419.8999999999999 896.2153846153847,461.28076923076924 974,493 C 1051.7846153846153,524.7192307692308 1131.9384615384615,546.7769230769231 1210,574 C 1288.0615384615385,601.2230769230769 1364.0307692307692,633.6115384615384 1440,666 L 1440,500 L 0,500 Z" stroke="none" stroke-width="0" fill="url(#gradient)" fill-opacity="1" class="transition-all duration-300 ease-in-out delay-150 path-1"></path></svg>