<svg xmlns="http://www.w3.org/2000/svg" xmlns:xlink="http://www.w3.org/1999/xlink" xmlns:xodm="http://www.corel.com/coreldraw/odm/2003" xml:space="preserve" width="205" height="58" version="1.1" style="shape-rendering:geometricPrecision; text-rendering:geometricPrecision; image-rendering:optimizeQuality; fill-rule:evenodd; clip-rule:evenodd" viewBox="0 0 91.55 25.71">
 <defs>
  <style type="text/css">
   <![CDATA[
    .fil3 {fill:#00C095}
    .fil2 {fill:#828385}
    .fil4 {fill:#949599}
    .fil1 {fill:#00C095;fill-rule:nonzero}
    .fil0 {fill:#828385;fill-rule:nonzero}
    .fil5 {fill:white;fill-rule:nonzero}
   ]]>
  </style>
 </defs>
 <g id="Layer_x0020_1">
  <metadata id="CorelCorpID_0Corel-Layer"/>
  <g id="_341975745184">
   <path class="fil0" d="M27.57 17.58l1.25 0 0 -4.72c0.35,0.09 0.74,0.11 1.18,0.11 2.03,0 4.19,-0.97 4.19,-3.67 0,-0.9 -0.3,-3.29 -4.01,-3.29 -1.07,0 -1.95,0.11 -2.61,0.23l0 11.34zm1.25 -10.44c0.27,-0.06 0.74,-0.12 1.37,-0.12 1.57,0 2.75,0.73 2.75,2.37 0,1.65 -1.1,2.55 -2.91,2.55 -0.49,0 -0.89,-0.03 -1.21,-0.12l0 -4.68z"/>
   <path id="1" class="fil0" d="M39.88 9.23c-0.14,-0.02 -0.25,-0.05 -0.38,-0.05 -1.01,0 -1.87,0.74 -2.23,1.77l-0.05 0 -0.06 -1.59 -1.1 0c0.04,0.79 0.06,1.59 0.06,2.46l0 5.76 1.25 0 0 -4.46c0,-1.39 0.7,-2.73 2.05,-2.73 0.18,0 0.32,0.01 0.46,0.03l0 -1.19z"/>
   <path id="2" class="fil0" d="M44.58 9.17c-2.09,0 -3.84,1.55 -3.84,4.35 0,2.66 1.62,4.24 3.74,4.24 1.82,0 3.84,-1.29 3.84,-4.36 0,-2.51 -1.49,-4.23 -3.74,-4.23zm2.46 4.28c0,1.85 -1.04,3.33 -2.53,3.33 -1.48,0 -2.49,-1.48 -2.49,-3.3 0,-1.58 0.74,-3.33 2.52,-3.33 1.79,0 2.5,1.84 2.5,3.3z"/>
   <path class="fil1" d="M61.82 12.05c1.22,-0.43 2.14,-1.41 2.14,-2.94 0,-0.86 -0.32,-1.64 -0.86,-2.14 -0.68,-0.63 -1.66,-0.93 -3.15,-0.93 -0.91,0 -1.9,0.09 -2.61,0.24l0 11.32 1.25 0 0 -5.08 1.4 0c1.36,0 1.99,0.71 2.32,2.31 0.31,1.43 0.56,2.44 0.74,2.77l1.3 0c-0.23,-0.43 -0.48,-1.44 -0.84,-3.1 -0.28,-1.25 -0.8,-2.11 -1.69,-2.4l0 -0.05zm-3.23 -0.49l0 -4.41c0.26,-0.06 0.74,-0.12 1.42,-0.12 1.4,0 2.68,0.53 2.68,2.23 0,1.39 -1.02,2.3 -2.62,2.3l-1.48 0z"/>
   <path id="1" class="fil1" d="M69.22 9.19c-2.09,0 -3.84,1.55 -3.84,4.36 0,2.65 1.63,4.24 3.74,4.24 1.82,0 3.84,-1.3 3.84,-4.36 0,-2.52 -1.49,-4.24 -3.74,-4.24zm2.46 4.28c0,1.86 -1.04,3.33 -2.53,3.33 -1.48,0 -2.49,-1.47 -2.49,-3.3 0,-1.58 0.74,-3.33 2.52,-3.33 1.79,0 2.5,1.84 2.5,3.3z"/>
   <path id="2" class="fil1" d="M79.74 9.38l-1.66 4.97c-0.2,0.63 -0.4,1.25 -0.53,1.75l-0.05 0c-0.13,-0.5 -0.31,-1.15 -0.52,-1.72l-1.8 -5 -1.37 0 2.91 7.61c0.06,0.15 0.09,0.27 0.09,0.34 0,0.17 -0.74,2.25 -2.65,2.96l0.34 1.06c0.3,-0.08 0.98,-0.34 1.68,-0.97 1.02,-0.97 1.72,-2.5 2.7,-5.17l2.18 -5.83 -1.32 0z"/>
   <path id="3" class="fil1" d="M87.84 12.46c0,-1.63 -0.61,-3.27 -2.93,-3.27 -0.92,0 -1.84,0.25 -2.5,0.69l0.3 0.86c0.56,-0.39 1.29,-0.59 2,-0.59 1.87,0 1.87,1.57 1.87,2.27 -3.04,-0.02 -4.76,1.05 -4.76,3.03 0,1.19 0.83,2.34 2.4,2.34 1.16,0 2,-0.59 2.42,-1.24l0.05 0 0.12 1.05 1.15 0c-0.11,-0.57 -0.12,-1.28 -0.12,-1.96l0 -3.18zm-1.24 2.43c0,0.99 -0.86,1.93 -2.08,1.93 -0.76,0 -1.42,-0.47 -1.42,-1.52 0,-1.74 1.95,-1.96 3.5,-1.96l0 1.55z"/>
   <polygon id="4" class="fil1" points="91.5,5.54 90.25,5.54 90.25,17.6 91.5,17.6 "/>
   <path class="fil2" d="M28.52 25.49c-0.09,0 -0.18,-0.01 -0.27,-0.03 -0.09,-0.03 -0.17,-0.06 -0.25,-0.1 -0.07,-0.04 -0.14,-0.09 -0.21,-0.15 -0.06,-0.06 -0.12,-0.13 -0.17,-0.2 -0.05,-0.09 -0.09,-0.2 -0.13,-0.31 -0.03,-0.11 -0.04,-0.22 -0.04,-0.35 0,-0.08 0,-0.15 0.02,-0.23 0.01,-0.08 0.02,-0.15 0.04,-0.23 0.02,-0.09 0.05,-0.17 0.09,-0.26 0.03,-0.08 0.07,-0.17 0.12,-0.27l0.35 0.17c-0.04,0.08 -0.07,0.16 -0.1,0.23 -0.03,0.08 -0.06,0.14 -0.08,0.21 -0.02,0.07 -0.03,0.13 -0.04,0.19 -0.01,0.07 -0.01,0.13 -0.01,0.19 0,0.18 0.04,0.33 0.12,0.45 0.06,0.1 0.13,0.17 0.23,0.22 0.1,0.05 0.21,0.07 0.33,0.07l0.36 0c0.14,0 0.24,-0.01 0.33,-0.04 0.08,-0.02 0.15,-0.06 0.19,-0.11 0.05,-0.06 0.08,-0.12 0.1,-0.19 0.01,-0.07 0.02,-0.15 0.02,-0.24l0 -1.23 0.4 0 0 1.23c0,0.33 -0.09,0.57 -0.27,0.73 -0.17,0.17 -0.42,0.25 -0.77,0.25l-0.36 0zm62.45 -1.28c0.01,0 0.03,0 0.06,0 0.02,0 0.04,-0.02 0.07,-0.04 0.02,-0.02 0.05,-0.06 0.07,-0.11 0.02,-0.06 0.03,-0.13 0.03,-0.24 0,-0.01 -0.01,-0.03 -0.01,-0.06 0,-0.02 -0.01,-0.05 -0.02,-0.08 -0.01,-0.03 -0.02,-0.07 -0.04,-0.1 -0.02,-0.04 -0.04,-0.07 -0.06,-0.1 -0.03,-0.02 -0.06,-0.05 -0.1,-0.06 -0.04,-0.02 -0.08,-0.03 -0.14,-0.03 -0.04,0 -0.09,0.01 -0.12,0.03 -0.03,0.02 -0.07,0.04 -0.09,0.08 -0.03,0.03 -0.05,0.07 -0.07,0.11 -0.02,0.04 -0.03,0.09 -0.05,0.13 -0.01,0.05 -0.03,0.09 -0.04,0.14 -0.01,0.04 -0.03,0.09 -0.04,0.12 0.05,0.03 0.1,0.06 0.15,0.08 0.05,0.03 0.1,0.05 0.14,0.07 0.05,0.02 0.1,0.03 0.14,0.05 0.05,0.01 0.09,0.01 0.12,0.01zm-0.14 -1.21c0.13,0 0.23,0.02 0.32,0.06 0.09,0.05 0.17,0.11 0.23,0.19 0.06,0.07 0.1,0.16 0.13,0.26 0.03,0.1 0.04,0.2 0.04,0.31 0,0.12 -0.01,0.23 -0.03,0.31 -0.02,0.09 -0.05,0.16 -0.08,0.22 -0.03,0.06 -0.07,0.1 -0.11,0.14 -0.05,0.03 -0.09,0.06 -0.13,0.07 -0.04,0.02 -0.09,0.03 -0.13,0.04 -0.04,0.01 -0.07,0.01 -0.1,0.01 -0.06,0 -0.11,-0.01 -0.17,-0.02 -0.05,-0.01 -0.11,-0.03 -0.16,-0.05 -0.06,-0.02 -0.12,-0.05 -0.18,-0.08 -0.06,-0.03 -0.13,-0.07 -0.2,-0.11 -0.05,0.06 -0.11,0.1 -0.17,0.13 -0.04,0.02 -0.09,0.03 -0.14,0.04l0 0 -0.05 0 -0.01 0 0 0 -0.07 0 -0.01 0 0 0 -0.2 0 0 -0.02c-0.02,-0.01 -0.05,-0.01 -0.08,-0.02 -0.08,-0.03 -0.15,-0.07 -0.2,-0.13 -0.07,0.05 -0.15,0.1 -0.24,0.13 -0.09,0.03 -0.2,0.04 -0.31,0.04l-0.26 0 -0.07 0 -0.63 0c-0.02,0 -0.05,0 -0.07,-0.01 -0.03,0 -0.06,-0.01 -0.1,-0.03 -0.03,-0.01 -0.07,-0.03 -0.12,-0.06 -0.05,-0.03 -0.1,-0.07 -0.16,-0.11 -0.08,0.03 -0.16,0.06 -0.25,0.09 -0.09,0.03 -0.19,0.05 -0.3,0.07 -0.1,0.02 -0.21,0.03 -0.33,0.04 -0.09,0 -0.17,0.01 -0.26,0.01l0 0 -0.06 0 -0.01 0 -0.01 0 0 0 -0.01 0 -2.55 0 -0.08 0 -0.07 0c-0.15,0 -0.29,-0.01 -0.42,-0.02 -0.13,-0.01 -0.25,-0.03 -0.36,-0.06 -0.1,0.03 -0.23,0.05 -0.36,0.06 -0.14,0.01 -0.29,0.02 -0.47,0.02l-1.26 0c-0.09,0 -0.17,-0.01 -0.25,-0.04 -0.08,-0.03 -0.15,-0.08 -0.21,-0.13 -0.02,-0.03 -0.05,-0.05 -0.07,-0.09 -0.03,-0.03 -0.05,-0.07 -0.07,-0.11 -0.02,-0.04 -0.04,-0.09 -0.05,-0.15 -0.01,-0.05 -0.02,-0.12 -0.02,-0.19 0,-0.06 0.01,-0.12 0.02,-0.2 0.01,-0.07 0.02,-0.14 0.04,-0.2 0.01,-0.07 0.03,-0.12 0.04,-0.17 0.02,-0.05 0.03,-0.08 0.03,-0.09l0.19 0.06 0.19 0.06c-0.01,0.02 -0.02,0.06 -0.04,0.11 -0.01,0.04 -0.02,0.09 -0.03,0.14 -0.01,0.05 -0.02,0.1 -0.03,0.16 -0.01,0.05 -0.02,0.1 -0.02,0.13 0,0.08 0.01,0.13 0.04,0.18 0.02,0.04 0.05,0.07 0.08,0.09 0.03,0.02 0.06,0.03 0.09,0.04 0.03,0.01 0.06,0.01 0.07,0.01l1.26 0c0.04,0 0.06,0 0.09,0 0.02,0 0.05,0 0.07,0 0.02,0 0.05,0 0.07,0 0.02,0 0.04,-0.01 0.07,-0.01 -0.03,-0.03 -0.06,-0.07 -0.08,-0.11 -0.02,-0.04 -0.04,-0.07 -0.06,-0.12 -0.01,-0.04 -0.02,-0.08 -0.03,-0.12 -0.01,-0.05 -0.01,-0.1 -0.01,-0.15 0,-0.09 0.02,-0.18 0.05,-0.26 0.04,-0.08 0.1,-0.16 0.16,-0.22 0.07,-0.06 0.15,-0.11 0.23,-0.15 0.09,-0.03 0.19,-0.05 0.29,-0.05 0.11,0 0.2,0.02 0.29,0.06 0.08,0.04 0.15,0.09 0.21,0.15 0.06,0.06 0.11,0.14 0.14,0.22 0.03,0.08 0.04,0.16 0.04,0.25 0,0.11 -0.01,0.2 -0.04,0.28 -0.03,0.08 -0.07,0.15 -0.13,0.22 0.04,0 0.08,0.01 0.12,0.01 0.05,0 0.09,0 0.13,0l0.07 0 0.08 0 0.26 0c0.01,-0.01 0.02,-0.02 0.02,-0.03 0.01,-0.01 0.02,-0.03 0.03,-0.05 0.01,-0.01 0.03,-0.04 0.05,-0.06 0.02,-0.03 0.04,-0.07 0.07,-0.11l0 -1.95 0.39 0 0 1.4c0.05,-0.05 0.1,-0.1 0.15,-0.15 0.06,-0.05 0.11,-0.09 0.17,-0.12 0.06,-0.03 0.12,-0.06 0.19,-0.08 0.07,-0.02 0.13,-0.03 0.2,-0.03 0.1,0 0.18,0.02 0.27,0.05 0.09,0.03 0.17,0.08 0.24,0.15 0.07,0.07 0.12,0.16 0.16,0.26 0.05,0.11 0.07,0.23 0.07,0.38 0,0.07 -0.01,0.13 -0.02,0.19 -0.01,0.05 -0.03,0.1 -0.05,0.15l0.35 0 0 0c0.09,0 0.17,0 0.25,-0.01 0.09,0 0.17,-0.01 0.25,-0.02 0.07,0 0.15,-0.02 0.21,-0.03 0.07,-0.01 0.12,-0.02 0.17,-0.04 -0.06,-0.05 -0.13,-0.11 -0.18,-0.16 -0.06,-0.06 -0.11,-0.11 -0.16,-0.16 -0.05,-0.04 -0.09,-0.08 -0.13,-0.12 -0.03,-0.04 -0.06,-0.06 -0.08,-0.08l0 -0.09c0,-0.02 0,-0.05 0.01,-0.08 0,-0.02 0,-0.05 0.01,-0.08 0.01,-0.03 0.02,-0.07 0.04,-0.1 0.01,-0.03 0.03,-0.06 0.06,-0.09 0.05,-0.05 0.11,-0.09 0.18,-0.12 0.07,-0.02 0.16,-0.04 0.26,-0.04l0.63 0c0.05,0 0.1,0.01 0.15,0.02 0.05,0.02 0.09,0.04 0.14,0.06 0.04,0.03 0.07,0.06 0.1,0.09 0.04,0.04 0.06,0.08 0.08,0.12 0.02,0.03 0.03,0.06 0.03,0.1 0.01,0.03 0.01,0.06 0.01,0.09 0,0.03 0,0.06 -0.01,0.1 -0.01,0.03 -0.04,0.07 -0.07,0.12 -0.03,0.05 -0.08,0.12 -0.14,0.19 -0.06,0.07 -0.14,0.16 -0.24,0.27 0.03,0.02 0.06,0.03 0.08,0.04 0.01,0.01 0.03,0.01 0.04,0.02l0.62 0 0.07 0 0.26 0c0.07,0 0.14,-0.01 0.18,-0.03 0.05,-0.01 0.09,-0.03 0.11,-0.05 0.03,-0.03 0.04,-0.05 0.05,-0.08 0.01,-0.03 0.01,-0.06 0.01,-0.08l0 -0.61 0.39 0 0 0.6c0,0.04 0.01,0.07 0.02,0.1 0.01,0.03 0.03,0.05 0.05,0.07 0.02,0.02 0.04,0.03 0.06,0.04 0.02,0.01 0.04,0.02 0.07,0.03 0.02,0 0.04,0.01 0.06,0.01l0.03 0 0 0 0 0 0.01 0 0 0 0 0 0.06 0 0 0 0 0c0.03,0 0.06,-0.01 0.08,-0.03 0.02,-0.02 0.04,-0.05 0.06,-0.08 0.02,-0.03 0.03,-0.07 0.05,-0.12 0.01,-0.05 0.03,-0.09 0.04,-0.15 0.02,-0.05 0.03,-0.11 0.05,-0.17 0.02,-0.06 0.05,-0.12 0.07,-0.17 0.03,-0.06 0.06,-0.11 0.1,-0.16 0.03,-0.05 0.07,-0.09 0.12,-0.13 0.05,-0.04 0.1,-0.07 0.17,-0.09 0.06,-0.02 0.13,-0.03 0.21,-0.03zm-1.93 -0.55l0.29 -0.3 0.31 0.31 -0.3 0.3 -0.3 -0.31zm-2.07 0.87c0.03,0.03 0.07,0.07 0.1,0.11 0.04,0.04 0.08,0.08 0.13,0.13 0.04,0.05 0.09,0.1 0.14,0.16 0.06,0.05 0.12,0.1 0.18,0.16 0.03,-0.02 0.06,-0.05 0.09,-0.09 0.04,-0.03 0.07,-0.07 0.11,-0.11 0.04,-0.03 0.08,-0.08 0.11,-0.12 0.04,-0.04 0.07,-0.08 0.1,-0.12 0.02,-0.02 0.03,-0.04 0.03,-0.06l0 -0.01c0,-0.02 0,-0.03 -0.01,-0.04 0,-0.02 -0.02,-0.03 -0.04,-0.04 -0.01,-0.01 -0.04,-0.01 -0.06,-0.01l-0.71 0c-0.03,0 -0.06,0 -0.08,0 -0.02,0 -0.04,0.01 -0.05,0.01 -0.01,0 -0.02,0.01 -0.03,0.01 -0.01,0.01 -0.01,0.01 -0.01,0.02zm-1.71 0.02c-0.07,0 -0.15,0.03 -0.22,0.07 -0.08,0.05 -0.16,0.11 -0.23,0.19 -0.08,0.07 -0.15,0.15 -0.21,0.25 -0.07,0.09 -0.13,0.19 -0.19,0.28l0.83 0c0.01,0 0.03,0 0.05,0 0.01,-0.01 0.03,-0.01 0.05,-0.01 0.03,-0.01 0.05,-0.01 0.07,-0.02 0.02,-0.01 0.05,-0.02 0.07,-0.03 0.02,-0.02 0.04,-0.03 0.06,-0.05 0.02,-0.02 0.04,-0.04 0.06,-0.06 0.01,-0.02 0.03,-0.04 0.04,-0.07 0.01,-0.03 0.01,-0.06 0.01,-0.1 0,-0.07 -0.01,-0.14 -0.03,-0.19 -0.02,-0.06 -0.05,-0.1 -0.08,-0.14 -0.04,-0.04 -0.08,-0.07 -0.12,-0.09 -0.05,-0.02 -0.1,-0.03 -0.16,-0.03zm-2.79 0.28l0 0.02c0,0.05 0,0.09 0.02,0.13 0.01,0.04 0.03,0.07 0.06,0.11 0.04,0.03 0.07,0.06 0.11,0.08 0.05,0.02 0.09,0.04 0.15,0.06 0.05,-0.02 0.09,-0.04 0.13,-0.06 0.04,-0.02 0.08,-0.05 0.1,-0.08 0.03,-0.03 0.05,-0.07 0.07,-0.11 0.01,-0.04 0.02,-0.09 0.02,-0.15 0,-0.03 -0.01,-0.07 -0.02,-0.1 -0.02,-0.03 -0.04,-0.07 -0.07,-0.09 -0.03,-0.03 -0.06,-0.05 -0.1,-0.07 -0.04,-0.02 -0.08,-0.03 -0.12,-0.03 -0.05,0 -0.09,0.01 -0.13,0.03 -0.05,0.01 -0.09,0.03 -0.12,0.06 -0.03,0.03 -0.06,0.06 -0.08,0.09 -0.01,0.04 -0.02,0.07 -0.02,0.11zm0.02 -1.38l0.3 -0.3 0.3 0.31 -0.3 0.3 -0.3 -0.31zm-2.91 0.79c0.01,0 0.01,0.02 0.02,0.05 0,0.04 0.01,0.07 0.02,0.12 0.01,0.05 0.02,0.1 0.03,0.16 0.01,0.05 0.02,0.11 0.03,0.17 0.01,0.05 0.02,0.11 0.02,0.16 0.01,0.05 0.01,0.1 0.01,0.14 0,0.12 -0.02,0.22 -0.06,0.31 -0.04,0.09 -0.09,0.16 -0.15,0.21 -0.06,0.06 -0.13,0.1 -0.21,0.13 -0.08,0.03 -0.16,0.04 -0.24,0.04l-0.76 0 0 0 -0.04 0 -0.72 0 -0.01 0 -0.01 0 -0.02 0c-0.05,0 -0.1,0 -0.15,-0.01 -0.05,-0.01 -0.09,-0.03 -0.14,-0.07 -0.01,0.16 -0.04,0.3 -0.09,0.43 -0.05,0.13 -0.13,0.24 -0.22,0.33 -0.09,0.09 -0.2,0.16 -0.33,0.21 -0.13,0.05 -0.28,0.08 -0.45,0.08l-0.25 0 0 -0.4 0.25 0c0.12,0 0.23,-0.01 0.31,-0.03 0.09,-0.03 0.16,-0.07 0.22,-0.12 0.05,-0.06 0.1,-0.13 0.12,-0.22 0.03,-0.09 0.04,-0.19 0.04,-0.32l0 -1.12 0.4 0 0 0.56c0,0.07 0.01,0.11 0.04,0.15 0.02,0.04 0.05,0.07 0.08,0.09 0.04,0.02 0.07,0.03 0.1,0.04 0.03,0.01 0.06,0.01 0.07,0.01l0.02 0 0.01 0 0.01 0 0.72 0 0.04 0 0 0 0.77 0c0.02,0 0.04,0 0.07,-0.01 0.03,0 0.06,-0.02 0.09,-0.04 0.03,-0.02 0.06,-0.04 0.08,-0.08 0.02,-0.04 0.03,-0.1 0.03,-0.17 0,-0.03 0,-0.06 0,-0.1 -0.01,-0.04 -0.01,-0.08 -0.02,-0.13 -0.01,-0.04 -0.02,-0.09 -0.03,-0.14 0,-0.04 -0.01,-0.09 -0.02,-0.13 -0.01,-0.04 -0.02,-0.08 -0.03,-0.11 -0.01,-0.04 -0.01,-0.06 -0.02,-0.08l0.37 -0.11zm-0.04 -0.38l-0.28 -0.29 0.28 -0.29 0.29 0.29 -0.29 0.29zm-0.72 0l-0.28 -0.29 0.28 -0.29 0.29 0.29 -0.29 0.29zm-3.26 0.38c0,0 0,0.02 0.01,0.05 0.01,0.04 0.02,0.07 0.03,0.12 0.01,0.05 0.02,0.1 0.03,0.16 0.01,0.05 0.02,0.11 0.03,0.17 0.01,0.05 0.01,0.11 0.02,0.16 0,0.05 0.01,0.1 0.01,0.14 0,0.12 -0.02,0.22 -0.06,0.31 -0.04,0.09 -0.09,0.16 -0.15,0.21 -0.07,0.06 -0.14,0.1 -0.22,0.13 -0.08,0.03 -0.16,0.04 -0.23,0.04l-0.73 0 -0.07 0 -0.05 0c-0.05,0 -0.1,0 -0.16,-0.01 -0.05,0 -0.09,-0.02 -0.14,-0.05l0 0.08c0,0.33 -0.08,0.56 -0.26,0.72 -0.17,0.15 -0.43,0.23 -0.77,0.23l-0.37 0c-0.09,0 -0.18,-0.01 -0.27,-0.03 -0.09,-0.03 -0.17,-0.06 -0.24,-0.1 -0.08,-0.04 -0.15,-0.09 -0.22,-0.15 -0.06,-0.06 -0.12,-0.13 -0.16,-0.2 -0.06,-0.09 -0.1,-0.19 -0.13,-0.29 -0.03,-0.1 -0.05,-0.22 -0.05,-0.34 0,-0.16 0.02,-0.32 0.07,-0.49 0.05,-0.16 0.12,-0.34 0.21,-0.54l0.36 0.17c-0.09,0.17 -0.15,0.32 -0.19,0.46 -0.04,0.14 -0.06,0.27 -0.06,0.4 0,0.09 0.01,0.16 0.03,0.23 0.02,0.07 0.05,0.13 0.09,0.19 0.06,0.1 0.14,0.17 0.23,0.22 0.1,0.05 0.21,0.07 0.33,0.07l0.37 0c0.13,0 0.24,-0.01 0.33,-0.03 0.08,-0.03 0.14,-0.06 0.19,-0.11 0.05,-0.05 0.08,-0.1 0.09,-0.17 0.02,-0.07 0.03,-0.15 0.03,-0.24l0 -1.26 0.39 0 0 0.59c0.01,0.08 0.03,0.15 0.09,0.19 0.05,0.05 0.12,0.07 0.21,0.07l0.05 0 0.07 0 0.74 0c0.01,0 0.04,0 0.07,-0.01 0.03,0 0.06,-0.02 0.09,-0.04 0.03,-0.02 0.05,-0.04 0.08,-0.08 0.02,-0.04 0.03,-0.1 0.03,-0.17 0,-0.03 0,-0.06 -0.01,-0.1 0,-0.04 -0.01,-0.08 -0.02,-0.13 0,-0.04 -0.01,-0.09 -0.02,-0.14 -0.01,-0.04 -0.02,-0.09 -0.03,-0.13 -0.01,-0.04 -0.02,-0.08 -0.03,-0.11 0,-0.04 -0.01,-0.06 -0.01,-0.08l0.37 -0.11zm-0.22 2.44l-0.29 -0.29 0.28 -0.29 0.3 0.29 -0.29 0.29zm-0.69 0l-0.28 -0.29 0.28 -0.29 0.29 0.29 -0.29 0.29zm-2.18 -2.32l0.3 -0.31 0.3 0.31 -0.3 0.3 -0.3 -0.3zm-4.32 1.37l0 0c-0.09,0 -0.17,-0.01 -0.24,-0.02 -0.08,-0.02 -0.16,-0.04 -0.22,-0.07 -0.06,-0.03 -0.11,-0.07 -0.14,-0.12 -0.04,-0.05 -0.07,-0.1 -0.09,-0.17 -0.02,-0.06 -0.03,-0.13 -0.04,-0.21 0,-0.08 -0.01,-0.17 -0.01,-0.27l0 -1.73 0.4 0 0 1.73c0,0.1 0,0.18 0.01,0.24 0,0.06 0.02,0.11 0.05,0.15 0.03,0.03 0.07,0.05 0.13,0.06 0.05,0.01 0.13,0.02 0.22,0.02l0 0 0.01 0 0 0 0.64 0c0.12,0 0.22,-0.01 0.29,-0.02 0.07,-0.02 0.13,-0.04 0.18,-0.06 0.04,-0.02 0.07,-0.05 0.09,-0.08 0.01,-0.03 0.03,-0.05 0.03,-0.08l-0.23 0c-0.11,0 -0.21,-0.01 -0.31,-0.03 -0.1,-0.02 -0.18,-0.06 -0.26,-0.11 -0.07,-0.05 -0.12,-0.12 -0.17,-0.2 -0.04,-0.08 -0.06,-0.18 -0.06,-0.3 0,-0.1 0.02,-0.19 0.06,-0.28 0.03,-0.09 0.08,-0.16 0.14,-0.23 0.07,-0.07 0.14,-0.12 0.23,-0.15 0.08,-0.04 0.16,-0.05 0.25,-0.05l0.04 0c0.09,0 0.17,0.02 0.24,0.05 0.07,0.03 0.14,0.07 0.19,0.12 0.05,0.05 0.09,0.11 0.13,0.17 0.04,0.07 0.06,0.14 0.09,0.21 0.02,0.08 0.03,0.16 0.04,0.24 0.01,0.08 0.02,0.16 0.02,0.24l0 0.25c0,0.09 -0.01,0.17 -0.04,0.24 -0.03,0.07 -0.06,0.13 -0.11,0.18 -0.04,0.05 -0.1,0.1 -0.16,0.13 -0.06,0.04 -0.13,0.07 -0.2,0.09 -0.08,0.02 -0.15,0.04 -0.23,0.05 -0.08,0.01 -0.17,0.01 -0.25,0.01l-0.64 0 0 0 -0.01 0 0 0 -0.07 0zm1 -1.59c-0.02,0 -0.03,0 -0.05,0 -0.03,0 -0.06,0 -0.1,0.01 -0.03,0.01 -0.07,0.03 -0.1,0.06 -0.03,0.02 -0.06,0.06 -0.07,0.1 -0.02,0.04 -0.03,0.09 -0.03,0.14 0,0.06 0.01,0.11 0.04,0.14 0.03,0.04 0.06,0.06 0.1,0.08 0.04,0.02 0.09,0.04 0.14,0.04 0.05,0.01 0.11,0.01 0.15,0.01l0.24 0c0,-0.05 -0.01,-0.11 -0.01,-0.17 0,-0.07 -0.02,-0.13 -0.04,-0.19 -0.02,-0.05 -0.05,-0.1 -0.09,-0.15 -0.04,-0.04 -0.1,-0.06 -0.18,-0.07zm0.3 -0.72l-0.28 -0.29 0.28 -0.29 0.29 0.29 -0.29 0.29zm-0.72 0l-0.28 -0.29 0.27 -0.29 0.3 0.29 -0.29 0.29zm-2.78 1.92c0.11,0 0.19,-0.01 0.25,-0.02 0.07,-0.02 0.12,-0.04 0.15,-0.07 0.02,-0.02 0.04,-0.05 0.05,-0.09 0.01,-0.04 0.01,-0.09 0.01,-0.15l0 -1.87 0.39 0 0 1.87c0,0.04 0,0.08 0,0.13 -0.01,0.04 -0.01,0.09 -0.03,0.13 -0.01,0.05 -0.03,0.09 -0.05,0.14 -0.03,0.04 -0.06,0.08 -0.1,0.12 -0.07,0.07 -0.16,0.12 -0.27,0.15 -0.09,0.03 -0.2,0.05 -0.34,0.05l0 0 -0.06 0 -0.01 0 -0.01 0 -0.05 0c-0.05,0 -0.09,0 -0.14,-0.01 -0.04,-0.01 -0.09,-0.02 -0.13,-0.03 -0.05,-0.02 -0.09,-0.03 -0.13,-0.06 -0.04,-0.02 -0.07,-0.05 -0.1,-0.08 -0.13,0.12 -0.32,0.18 -0.56,0.18l-1.92 0c-0.08,0 -0.17,-0.01 -0.25,-0.04 -0.07,-0.03 -0.14,-0.08 -0.2,-0.13 -0.03,-0.03 -0.05,-0.05 -0.08,-0.09 -0.02,-0.03 -0.05,-0.07 -0.07,-0.11 -0.02,-0.04 -0.03,-0.09 -0.05,-0.15 -0.01,-0.05 -0.02,-0.12 -0.02,-0.19 0,-0.06 0.01,-0.12 0.02,-0.2 0.01,-0.07 0.03,-0.14 0.04,-0.2 0.02,-0.07 0.03,-0.12 0.05,-0.17 0.01,-0.05 0.02,-0.08 0.02,-0.09l0.19 0.06 0.19 0.06c-0.01,0.02 -0.02,0.06 -0.03,0.11 -0.02,0.04 -0.03,0.09 -0.04,0.14 -0.01,0.05 -0.02,0.1 -0.03,0.16 -0.01,0.05 -0.01,0.1 -0.01,0.13 0,0.08 0.01,0.13 0.03,0.18 0.02,0.04 0.05,0.07 0.08,0.09 0.03,0.02 0.06,0.03 0.09,0.04 0.04,0.01 0.06,0.01 0.08,0.01l1.9 0c0.09,0 0.16,-0.01 0.21,-0.03 0.05,-0.02 0.09,-0.04 0.11,-0.07 0.02,-0.03 0.04,-0.05 0.04,-0.08 0,-0.03 0.01,-0.06 0.01,-0.07l0 -0.6 0.39 0 0 0.59c0,0.06 0.01,0.11 0.04,0.14 0.02,0.03 0.05,0.06 0.09,0.08 0.03,0.02 0.06,0.03 0.1,0.03 0.03,0.01 0.06,0.01 0.08,0.01l0.05 0 0.01 0 0 0 0.01 0zm-2.26 1.01l0.3 -0.3 0.3 0.31 -0.3 0.3 -0.3 -0.31zm-4.65 -1.01l0.67 0c0.12,0 0.21,-0.01 0.29,-0.02 0.07,-0.02 0.13,-0.04 0.17,-0.06 0.05,-0.02 0.08,-0.05 0.1,-0.08 0.01,-0.03 0.03,-0.05 0.03,-0.08l-0.23 0c-0.11,0 -0.21,-0.01 -0.31,-0.03 -0.1,-0.02 -0.18,-0.06 -0.26,-0.11 -0.07,-0.05 -0.13,-0.12 -0.17,-0.2 -0.04,-0.08 -0.06,-0.18 -0.06,-0.3 0,-0.1 0.02,-0.19 0.05,-0.28 0.04,-0.09 0.09,-0.16 0.15,-0.23 0.07,-0.07 0.14,-0.12 0.23,-0.15 0.08,-0.04 0.16,-0.05 0.25,-0.05l0.04 0c0.09,0 0.17,0.02 0.24,0.05 0.07,0.03 0.14,0.07 0.19,0.12 0.05,0.05 0.09,0.11 0.13,0.17 0.03,0.07 0.06,0.14 0.08,0.21 0.02,0.08 0.04,0.16 0.05,0.24 0.01,0.08 0.02,0.16 0.02,0.24l0 0.25c0,0.09 -0.02,0.17 -0.04,0.24 -0.03,0.07 -0.06,0.13 -0.11,0.18 -0.04,0.05 -0.1,0.1 -0.16,0.13 -0.06,0.04 -0.13,0.07 -0.2,0.09 -0.08,0.02 -0.15,0.04 -0.23,0.05 -0.09,0.01 -0.17,0.01 -0.25,0.01l-0.67 0 0 0 -0.05 0 -0.69 0 -0.03 0 0 0 -0.01 0c-0.05,0 -0.1,0 -0.15,-0.01 -0.05,-0.01 -0.09,-0.03 -0.14,-0.07 -0.01,0.16 -0.04,0.3 -0.09,0.43 -0.05,0.13 -0.12,0.24 -0.22,0.33 -0.09,0.09 -0.2,0.16 -0.33,0.21 -0.13,0.05 -0.28,0.08 -0.45,0.08l-0.24 0 0 -0.4 0.24 0c0.12,0 0.23,-0.01 0.31,-0.03 0.09,-0.03 0.16,-0.07 0.22,-0.12 0.05,-0.06 0.1,-0.13 0.12,-0.22 0.03,-0.09 0.04,-0.19 0.04,-0.32l0 -1.12 0.4 0 0 0.56c0,0.07 0.01,0.11 0.04,0.15 0.02,0.04 0.05,0.07 0.09,0.09 0.03,0.02 0.06,0.03 0.09,0.04 0.04,0.01 0.06,0.01 0.07,0.01l0.01 0 0 0 0.03 0 0.69 0 0.05 0 0 0zm0.95 -1.2c-0.02,0 -0.03,0 -0.05,0 -0.03,0 -0.06,0 -0.1,0.01 -0.03,0.01 -0.07,0.03 -0.1,0.06 -0.03,0.02 -0.06,0.06 -0.08,0.1 -0.01,0.04 -0.02,0.09 -0.02,0.14 0,0.06 0.01,0.11 0.04,0.14 0.02,0.04 0.06,0.06 0.1,0.08 0.04,0.02 0.09,0.04 0.14,0.04 0.05,0.01 0.1,0.01 0.15,0.01l0.24 0c0,-0.05 -0.01,-0.11 -0.01,-0.17 -0.01,-0.07 -0.02,-0.13 -0.04,-0.19 -0.02,-0.05 -0.05,-0.1 -0.09,-0.15 -0.04,-0.04 -0.11,-0.06 -0.18,-0.07zm-0.31 -1.1l0.3 -0.3 0.3 0.31 -0.3 0.3 -0.3 -0.31zm-4.57 3.26c0.19,0 0.34,-0.01 0.46,-0.04 0.12,-0.02 0.21,-0.06 0.28,-0.12 0.03,-0.02 0.05,-0.05 0.07,-0.07 0.02,-0.03 0.04,-0.06 0.05,-0.09 0.02,-0.03 0.03,-0.07 0.04,-0.11 0,-0.04 0.01,-0.09 0.01,-0.14l-0.3 0c-0.09,0 -0.18,-0.01 -0.27,-0.04 -0.09,-0.02 -0.17,-0.06 -0.24,-0.12 -0.07,-0.06 -0.13,-0.13 -0.18,-0.23 -0.05,-0.09 -0.07,-0.21 -0.07,-0.35 0,-0.08 0.01,-0.15 0.02,-0.22 0.02,-0.06 0.03,-0.12 0.06,-0.17 0.02,-0.05 0.04,-0.09 0.07,-0.13 0.02,-0.04 0.05,-0.07 0.07,-0.1 0.07,-0.07 0.15,-0.12 0.24,-0.16 0.09,-0.03 0.18,-0.05 0.28,-0.05 0.09,0 0.17,0.01 0.25,0.04 0.08,0.03 0.15,0.07 0.21,0.12 0.08,0.08 0.14,0.18 0.19,0.3 0.04,0.11 0.06,0.26 0.06,0.42l0 0.66c0,0.09 -0.01,0.17 -0.02,0.24 -0.01,0.08 -0.03,0.14 -0.06,0.2 -0.02,0.06 -0.06,0.12 -0.1,0.17 -0.04,0.05 -0.08,0.09 -0.14,0.14 -0.05,0.04 -0.11,0.08 -0.17,0.11 -0.07,0.03 -0.14,0.05 -0.22,0.08 -0.08,0.02 -0.17,0.03 -0.27,0.04 -0.09,0.01 -0.2,0.02 -0.32,0.02l0 -0.4zm0.59 -1.75c-0.11,0 -0.19,0.04 -0.25,0.11 -0.07,0.08 -0.1,0.19 -0.1,0.33 0,0.08 0.02,0.13 0.04,0.18 0.02,0.04 0.05,0.08 0.09,0.11 0.02,0.01 0.04,0.02 0.07,0.03 0.02,0 0.04,0.01 0.06,0.02 0.03,0 0.05,0 0.06,0.01 0.02,0 0.03,0 0.05,0l0.3 0 0 -0.3c0,-0.08 -0.01,-0.15 -0.02,-0.21 -0.01,-0.06 -0.03,-0.1 -0.05,-0.14 -0.01,-0.03 -0.04,-0.06 -0.06,-0.08 -0.02,-0.02 -0.05,-0.04 -0.07,-0.04 -0.02,-0.01 -0.04,-0.02 -0.07,-0.02 -0.02,0 -0.03,0 -0.05,0zm-2.78 1.18c-0.11,0 -0.21,-0.02 -0.29,-0.05 -0.09,-0.03 -0.16,-0.07 -0.23,-0.13 -0.06,0.06 -0.13,0.11 -0.22,0.14 -0.08,0.03 -0.16,0.04 -0.24,0.04l-0.31 0 -0.05 0 0 0 -0.01 0 -0.03 0 0 0c-0.09,0 -0.17,-0.01 -0.23,-0.03 -0.08,-0.02 -0.15,-0.05 -0.21,-0.09 -0.07,-0.04 -0.12,-0.08 -0.18,-0.13 -0.05,-0.05 -0.1,-0.11 -0.16,-0.17 -0.01,0.03 -0.04,0.06 -0.06,0.09 -0.03,0.04 -0.06,0.07 -0.09,0.09 -0.03,0.03 -0.06,0.06 -0.1,0.08 -0.04,0.03 -0.08,0.05 -0.11,0.07 -0.08,0.03 -0.16,0.05 -0.24,0.07 -0.09,0.01 -0.19,0.02 -0.28,0.02l-0.48 0 -0.01 0 0 0 -0.01 0 -0.05 0 0 0c-0.1,0 -0.18,-0.01 -0.25,-0.02 -0.09,-0.02 -0.16,-0.04 -0.22,-0.07 -0.06,-0.03 -0.11,-0.07 -0.15,-0.12 -0.04,-0.05 -0.06,-0.1 -0.08,-0.17 -0.02,-0.06 -0.03,-0.13 -0.04,-0.21 -0.01,-0.08 -0.01,-0.17 -0.01,-0.27l0 -1.73 0.39 0 0 1.73c0,0.1 0.01,0.18 0.01,0.24 0.01,0.06 0.03,0.11 0.06,0.15 0.02,0.03 0.07,0.05 0.12,0.06 0.06,0.01 0.13,0.02 0.23,0.02l0 0 0.01 0 0 0 0.51 0c0.06,0 0.12,-0.01 0.18,-0.02 0.06,-0.01 0.11,-0.02 0.16,-0.04 0.05,-0.02 0.09,-0.04 0.12,-0.06 0.04,-0.03 0.06,-0.05 0.08,-0.08 0.01,-0.01 0.01,-0.03 0.02,-0.05 0,-0.01 0,-0.03 0,-0.05 0,-0.03 -0.01,-0.08 -0.04,-0.13 -0.02,-0.06 -0.05,-0.12 -0.1,-0.18 -0.04,-0.07 -0.09,-0.14 -0.14,-0.21 -0.05,-0.07 -0.11,-0.15 -0.17,-0.22 -0.05,-0.07 -0.11,-0.14 -0.16,-0.2 -0.06,-0.07 -0.11,-0.13 -0.16,-0.18l0.07 -0.33 1.62 -0.75 0.16 0.36 -1.41 0.65 0.69 0.93c0.07,0.09 0.13,0.17 0.19,0.24 0.05,0.07 0.11,0.13 0.17,0.18 0.05,0.04 0.11,0.08 0.18,0.1 0.06,0.03 0.13,0.04 0.2,0.04l0.01 0 0 0 0.05 0 0.31 0c0.01,0 0.04,0 0.07,-0.01 0.03,-0.01 0.06,-0.02 0.09,-0.04 0.03,-0.02 0.05,-0.05 0.07,-0.09 0.03,-0.04 0.04,-0.09 0.04,-0.16l0 -0.55 0.39 0 0 0.54c0,0.11 0.03,0.18 0.08,0.23 0.05,0.05 0.13,0.08 0.24,0.08 0.02,0 0.04,-0.01 0.07,-0.01 0.03,-0.01 0.06,-0.02 0.09,-0.04 0.03,-0.02 0.06,-0.05 0.08,-0.1 0.02,-0.04 0.04,-0.09 0.04,-0.16l0 -0.54 0.39 0 0 0.54c0,0.11 0.02,0.18 0.07,0.23 0.06,0.05 0.14,0.08 0.26,0.08 0.01,0 0.04,0 0.07,-0.01 0.03,-0.01 0.06,-0.02 0.09,-0.04 0.02,-0.03 0.05,-0.06 0.07,-0.1 0.02,-0.04 0.03,-0.09 0.03,-0.16 0,-0.03 0,-0.06 0,-0.1 -0.01,-0.04 -0.01,-0.08 -0.02,-0.12 -0.01,-0.05 -0.02,-0.09 -0.03,-0.14 0,-0.05 -0.01,-0.09 -0.02,-0.13 -0.01,-0.04 -0.02,-0.08 -0.03,-0.11 -0.01,-0.03 -0.01,-0.06 -0.02,-0.08l0.37 -0.11c0.01,0 0.01,0.02 0.02,0.05 0.01,0.03 0.02,0.07 0.03,0.12 0.01,0.04 0.02,0.09 0.03,0.15 0.01,0.05 0.02,0.11 0.03,0.17 0.01,0.05 0.02,0.11 0.02,0.16 0.01,0.05 0.01,0.1 0.01,0.14 0,0.12 -0.02,0.22 -0.06,0.31 -0.04,0.08 -0.09,0.16 -0.15,0.22 -0.06,0.05 -0.13,0.1 -0.21,0.13 -0.08,0.03 -0.15,0.04 -0.23,0.04 -0.12,0 -0.22,-0.01 -0.3,-0.05 -0.09,-0.03 -0.17,-0.08 -0.23,-0.14 -0.07,0.07 -0.14,0.11 -0.22,0.14 -0.08,0.03 -0.16,0.05 -0.25,0.05zm0.41 -2.03l-0.29 0.29 -0.29 -0.29 0.29 -0.29 0.29 0.29zm0.77 -0.01l-0.28 0.29 -0.3 -0.29 0.29 -0.29 0.29 0.29zm-0.4 -0.51l-0.27 0.27 -0.26 -0.26 0.27 -0.27 0.26 0.26zm-3.87 -0.14l1.35 -0.59 0.08 0.18 -1.45 0.64 0.02 -0.23zm-2.31 0.73c0.1,0.13 0.19,0.25 0.29,0.37 0.03,0.05 0.07,0.1 0.11,0.15 0.04,0.05 0.08,0.1 0.11,0.15 0.04,0.05 0.07,0.09 0.11,0.13 0.03,0.04 0.05,0.07 0.07,0.1 0.04,0.05 0.07,0.1 0.09,0.16 0.03,0.06 0.05,0.12 0.05,0.18 0.01,0.04 0.01,0.08 0.01,0.12 0,0.02 0,0.05 0,0.09 -0.01,0.05 -0.02,0.09 -0.03,0.14 -0.03,0.07 -0.06,0.14 -0.1,0.19 -0.05,0.06 -0.1,0.11 -0.17,0.15 -0.06,0.05 -0.13,0.08 -0.22,0.1 -0.08,0.02 -0.17,0.03 -0.27,0.03 -0.08,0 -0.17,0 -0.26,-0.02 -0.09,-0.02 -0.18,-0.05 -0.27,-0.1 -0.03,-0.01 -0.05,-0.02 -0.07,-0.03 -0.02,-0.01 -0.04,-0.02 -0.06,-0.03 -0.02,-0.01 -0.04,-0.01 -0.05,-0.02 -0.23,0.07 -0.51,0.1 -0.85,0.1l-0.13 0 -0.07 0 -0.48 0c0.04,0.05 0.07,0.09 0.09,0.14 0.02,0.05 0.04,0.1 0.04,0.15 0,0.11 -0.03,0.2 -0.09,0.29 -0.06,0.09 -0.14,0.16 -0.24,0.22 -0.11,0.06 -0.23,0.11 -0.36,0.14 -0.14,0.04 -0.28,0.05 -0.43,0.05l-0.46 0c-0.1,0 -0.19,-0.01 -0.28,-0.03 -0.09,-0.02 -0.17,-0.05 -0.24,-0.1 -0.08,-0.04 -0.15,-0.09 -0.22,-0.15 -0.06,-0.06 -0.12,-0.12 -0.17,-0.2 -0.11,-0.18 -0.17,-0.4 -0.17,-0.66 0,-0.15 0.02,-0.31 0.06,-0.48 0.05,-0.16 0.12,-0.35 0.21,-0.55l0.35 0.17c-0.04,0.09 -0.07,0.17 -0.1,0.24 -0.03,0.08 -0.05,0.15 -0.07,0.22 -0.02,0.07 -0.03,0.14 -0.04,0.21 -0.01,0.06 -0.02,0.12 -0.02,0.19 0,0.17 0.04,0.33 0.12,0.45 0.06,0.1 0.14,0.17 0.24,0.22 0.1,0.05 0.21,0.08 0.33,0.08l0.46 0c0.09,0 0.18,-0.01 0.27,-0.03 0.08,-0.02 0.16,-0.05 0.22,-0.08 0.07,-0.03 0.12,-0.07 0.16,-0.11 0.04,-0.05 0.06,-0.09 0.06,-0.14 -0.04,-0.04 -0.08,-0.08 -0.14,-0.11 -0.06,-0.02 -0.12,-0.05 -0.19,-0.07 -0.07,-0.01 -0.15,-0.03 -0.23,-0.04 -0.08,-0.01 -0.16,-0.01 -0.25,-0.02l0.01 -0.39 1.56 0 0.07 0 0.13 0c0.07,0 0.13,0 0.19,0 0.06,0 0.12,-0.01 0.18,-0.01 -0.07,-0.08 -0.13,-0.16 -0.17,-0.25 -0.04,-0.08 -0.06,-0.18 -0.06,-0.29 0,-0.1 0.02,-0.18 0.06,-0.26 0.03,-0.08 0.08,-0.15 0.15,-0.21 0.06,-0.05 0.13,-0.1 0.22,-0.13 0.09,-0.03 0.18,-0.05 0.28,-0.05 0.07,0 0.14,0.01 0.2,0.03 0.07,0.02 0.13,0.05 0.18,0.09 0.05,0.03 0.1,0.07 0.14,0.12 0.04,0.04 0.07,0.09 0.09,0.14 0.03,0.05 0.05,0.1 0.07,0.15 0.01,0.05 0.02,0.1 0.02,0.15 0,0.12 -0.03,0.22 -0.07,0.32 -0.05,0.1 -0.11,0.18 -0.2,0.26 0.05,0.01 0.09,0.03 0.14,0.04 0.05,0.01 0.1,0.01 0.14,0.01 0.04,0 0.08,0 0.13,-0.01 0.04,0 0.08,-0.02 0.12,-0.03 0.04,-0.02 0.07,-0.04 0.1,-0.07 0.03,-0.03 0.06,-0.07 0.07,-0.12 0.01,-0.02 0.01,-0.04 0.01,-0.06 0,-0.04 -0.01,-0.1 -0.04,-0.16 -0.03,-0.07 -0.08,-0.16 -0.16,-0.26 -0.07,-0.1 -0.16,-0.22 -0.26,-0.34 -0.1,-0.13 -0.21,-0.26 -0.33,-0.4l0.31 -0.23zm-1 1.02c0,0.09 0.03,0.18 0.09,0.25 0.06,0.07 0.15,0.14 0.27,0.2 0.04,-0.02 0.08,-0.04 0.12,-0.07 0.03,-0.03 0.07,-0.06 0.1,-0.1 0.02,-0.03 0.05,-0.07 0.06,-0.12 0.02,-0.04 0.03,-0.08 0.03,-0.13 0,-0.05 -0.01,-0.1 -0.03,-0.14 -0.03,-0.04 -0.06,-0.08 -0.09,-0.11 -0.03,-0.02 -0.07,-0.04 -0.11,-0.06 -0.04,-0.01 -0.07,-0.02 -0.1,-0.02 -0.05,0 -0.09,0.01 -0.13,0.03 -0.04,0.01 -0.08,0.03 -0.11,0.06 -0.03,0.03 -0.05,0.06 -0.07,0.09 -0.02,0.04 -0.03,0.08 -0.03,0.12zm-6.12 0.96c-0.07,0 -0.14,-0.01 -0.21,-0.01 -0.04,-0.01 -0.07,-0.01 -0.11,-0.02 -0.05,0 -0.09,-0.01 -0.13,-0.02 -0.04,-0.01 -0.08,-0.03 -0.13,-0.04 -0.04,-0.02 -0.08,-0.04 -0.12,-0.06l-0.17 -0.1 0.2 -0.34 0.17 0.1c0.04,0.02 0.09,0.04 0.15,0.06 0.06,0.01 0.12,0.02 0.19,0.03 0.05,0 0.11,0 0.16,0 0.02,0 0.04,0 0.08,0 0.04,0 0.09,0 0.15,-0.01 0.07,-0.01 0.13,-0.03 0.17,-0.05 0.04,-0.01 0.06,-0.03 0.06,-0.05 0.01,-0.01 0.01,-0.01 0.01,-0.03 0,-0.01 0,-0.03 -0.01,-0.07 -0.01,-0.03 -0.04,-0.07 -0.08,-0.14 -0.11,-0.17 -0.21,-0.31 -0.28,-0.42 -0.07,-0.11 -0.13,-0.2 -0.17,-0.26 -0.04,-0.06 -0.07,-0.1 -0.08,-0.12 -0.02,-0.03 -0.02,-0.04 -0.03,-0.04l-0.1 -0.16 0.33 -0.22 0.1 0.17 0.03 0.03c0.01,0.02 0.04,0.07 0.08,0.13 0.04,0.06 0.1,0.14 0.17,0.25 0.07,0.11 0.16,0.25 0.28,0.42 0.07,0.11 0.11,0.21 0.14,0.3 0.01,0.05 0.01,0.09 0.01,0.13 0,0.07 -0.01,0.13 -0.04,0.19 -0.04,0.1 -0.11,0.17 -0.21,0.23 -0.09,0.05 -0.2,0.08 -0.33,0.1 -0.04,0.01 -0.09,0.01 -0.13,0.01 -0.05,0.01 -0.1,0.01 -0.15,0.01zm-1.12 -0.1c0,0.16 -0.03,0.3 -0.08,0.43 -0.06,0.13 -0.13,0.24 -0.22,0.33 -0.09,0.09 -0.21,0.16 -0.34,0.21 -0.13,0.05 -0.28,0.08 -0.44,0.08l-0.25 0 0 -0.4 0.25 0c0.12,0 0.22,-0.01 0.31,-0.03 0.09,-0.03 0.16,-0.07 0.21,-0.12 0.06,-0.06 0.1,-0.13 0.13,-0.22 0.03,-0.09 0.04,-0.19 0.04,-0.32l0 -1.12 0.39 0 0 1.16zm-2.92 0.08l-0.39 0 0 -2.59 0.39 0 0 2.59zm-1.04 -1.49c0,0 0,0.02 0.01,0.05 0.01,0.04 0.02,0.07 0.03,0.12 0.01,0.05 0.02,0.1 0.03,0.16 0.01,0.05 0.02,0.11 0.03,0.17 0.01,0.05 0.01,0.11 0.02,0.16 0,0.05 0.01,0.1 0.01,0.14 0,0.12 -0.02,0.22 -0.06,0.31 -0.04,0.09 -0.09,0.16 -0.15,0.21 -0.07,0.06 -0.14,0.1 -0.22,0.13 -0.08,0.03 -0.16,0.04 -0.23,0.04l-0.77 0 0 0 -0.03 0 -0.74 0 0 0 0 0 0 0 -0.29 0 -0.04 0 0 0 -0.01 0 0 0 0 0 -0.29 0c-0.01,0.13 -0.04,0.25 -0.08,0.35 -0.05,0.13 -0.12,0.24 -0.22,0.33 -0.09,0.09 -0.2,0.16 -0.33,0.21 -0.13,0.05 -0.28,0.08 -0.45,0.08l-0.24 0 0 -0.4 0.24 0c0.12,0 0.23,-0.01 0.31,-0.03 0.09,-0.03 0.16,-0.07 0.22,-0.12 0.05,-0.06 0.1,-0.13 0.12,-0.22 0.03,-0.09 0.04,-0.19 0.04,-0.32l0 -1.12 0.4 0 0 0.56c0,0.07 0.01,0.11 0.04,0.15 0.02,0.04 0.05,0.07 0.09,0.09 0.03,0.02 0.06,0.03 0.09,0.04 0.03,0 0.05,0.01 0.07,0.01l0 0 0 0 0 0 0 0 0.04 0 0.29 0 0 0 0 0 0 0 0.74 0 0.03 0 0 0 0.78 0c0.01,0 0.04,0 0.07,-0.01 0.03,0 0.06,-0.02 0.09,-0.04 0.03,-0.02 0.05,-0.04 0.08,-0.08 0.02,-0.04 0.03,-0.1 0.03,-0.17 0,-0.03 0,-0.06 -0.01,-0.1 0,-0.04 -0.01,-0.08 -0.02,-0.13 0,-0.04 -0.01,-0.09 -0.02,-0.14 -0.01,-0.04 -0.02,-0.09 -0.03,-0.13 -0.01,-0.04 -0.02,-0.08 -0.03,-0.11 0,-0.04 -0.01,-0.06 -0.01,-0.08l0.37 -0.11zm-0.22 2.44l-0.29 -0.29 0.28 -0.29 0.3 0.29 -0.29 0.29zm-0.69 0l-0.28 -0.29 0.28 -0.29 0.29 0.29 -0.29 0.29zm-3.46 -0.95l-0.39 0 0 -2.59 0.39 0 0 2.59zm-2.31 -1.38l0.3 -0.3 0.31 0.3 -0.3 0.3 -0.31 -0.3z"/>
   <path class="fil3" d="M7.82 25.71l7.71 0 0 0 0.36 0c0.22,0 0.45,0 0.68,-0.02 1.85,-0.1 3.63,-0.73 4.94,-2.07 1.25,-1.28 1.82,-2.95 1.84,-4.72 0,-0.19 -0.01,-0.38 -0.02,-0.57l-0.55 -9.53 0 -0.03c0,-0.94 -0.39,-1.8 -1.07,-2.44 -0.69,-0.64 -1.58,-0.87 -2.5,-0.87 -0.73,0 -1.47,-0.01 -2.2,-0.01l-0.34 0 -0.01 -0.35c-0.02,-1.79 -0.74,-3.38 -2.28,-4.34 -0.81,-0.5 -1.76,-0.76 -2.71,-0.76 -0.95,0 -1.89,0.26 -2.7,0.76 -1.54,0.96 -2.27,2.55 -2.29,4.34l0 0.35 -0.35 0c-0.73,0 -1.46,0.01 -2.19,0.01 -0.92,0 -1.81,0.23 -2.5,0.87 -0.68,0.64 -1.07,1.5 -1.07,2.44l0 0.03 -0.56 9.53c-0.01,0.19 -0.01,0.38 -0.01,0.57 0.02,1.77 0.59,3.44 1.83,4.72 1.32,1.34 3.1,1.97 4.95,2.07 0.22,0.02 0.45,0.02 0.68,0.02l0.36 0 0 0zm13.48 -17.15l0.02 -0.01 0.58 9.86c0.01,0.16 0.01,0.32 0.01,0.48 -0.01,1.38 -0.45,2.72 -1.43,3.73 -1.05,1.07 -2.51,1.55 -3.99,1.64 -0.2,0.01 -0.4,0.01 -0.6,0.01l-0.08 0 -0.01 0 -8.25 0 -0.01 0 -0.08 0c-0.2,0 -0.4,0 -0.61,-0.01 -1.47,-0.09 -2.93,-0.57 -3.98,-1.64 -0.98,-1.01 -1.42,-2.35 -1.43,-3.73 0,-0.16 0,-0.32 0.01,-0.48l0.57 -9.86 0.03 0.01c0.07,-0.44 0.24,-0.87 0.57,-1.17 0.41,-0.38 0.98,-0.49 1.52,-0.49l0.01 0c5.01,0 10.03,0 15.05,0l0.01 0c0.54,0 1.11,0.11 1.52,0.49 0.33,0.3 0.49,0.73 0.57,1.17zm-13.17 -3.47c0.03,-1.25 0.51,-2.43 1.6,-3.11 0.58,-0.36 1.26,-0.53 1.94,-0.53 0.68,0 1.37,0.17 1.95,0.53 1.09,0.68 1.57,1.86 1.6,3.11l0.01 0.36 -7.11 0 0.01 -0.36zm-1.47 4.36c0.17,1.87 1.15,3.39 2.88,4.17 0.71,0.32 1.5,0.47 2.28,0.47 0.78,-0.01 1.57,-0.17 2.28,-0.51 1.69,-0.79 2.65,-2.29 2.79,-4.14 0.03,-0.4 -0.28,-0.75 -0.67,-0.77 -0.4,-0.03 -0.74,0.27 -0.77,0.67 -0.1,1.29 -0.77,2.39 -1.96,2.94 -0.52,0.25 -1.1,0.37 -1.67,0.37 -0.58,0.01 -1.16,-0.11 -1.69,-0.35 -1.23,-0.55 -1.92,-1.66 -2.04,-2.98 -0.04,-0.39 -0.39,-0.69 -0.78,-0.65 -0.4,0.04 -0.69,0.39 -0.65,0.78z"/>
   <g>
    <rect class="fil4" x="49.71" y="5.88" width="5.63" height="12.03" rx="0.86" ry="0.86"/>
    <path class="fil5" d="M53.69 8.4c0.08,-0.14 0.15,-0.37 0.15,-0.63 0,-0.56 -0.35,-0.92 -0.8,-0.92 -0.31,0 -0.57,0.21 -0.76,0.68 -0.13,0.32 -0.24,0.43 -0.45,0.43 -0.2,0 -0.34,-0.15 -0.34,-0.44 0,-0.23 0.09,-0.48 0.17,-0.61l-0.41 -0.13c-0.11,0.18 -0.18,0.45 -0.18,0.73 0,0.6 0.3,0.99 0.82,0.99 0.38,0 0.62,-0.23 0.8,-0.67 0.14,-0.32 0.23,-0.45 0.42,-0.45 0.18,0 0.32,0.14 0.32,0.39 0,0.22 -0.08,0.4 -0.15,0.51l0.41 0.12z"/>
    <path id="1" class="fil5" d="M52.73 11.24c0.84,0 1.11,-0.46 1.11,-0.86 0,-0.29 -0.14,-0.59 -0.42,-0.77l0 -0.01 1.57 0 0 -0.56 -3.87 0 0 0.56 1.63 0c0.4,0 0.63,0.3 0.63,0.57 0,0.38 -0.32,0.51 -0.7,0.51l-1.56 0 0 0.56 1.61 0z"/>
    <path id="2" class="fil5" d="M53.84 13.03c0,-0.7 -0.51,-1.25 -1.4,-1.25 -0.86,0 -1.37,0.52 -1.37,1.21 0,0.6 0.41,1.25 1.4,1.25 0.82,0 1.37,-0.48 1.37,-1.21zm-1.38 0.63c-0.53,0 -0.97,-0.25 -0.97,-0.65 0,-0.41 0.44,-0.66 0.96,-0.66 0.46,0 0.97,0.18 0.97,0.66 0,0.47 -0.52,0.65 -0.96,0.65z"/>
    <path id="3" class="fil5" d="M53.38 15.29l0.4 -0.03 0 -0.49c-0.23,0.01 -0.51,0.02 -0.86,0.02l-2.87 0 0 0.56 1.39 0 0 0.01c-0.22,0.13 -0.37,0.39 -0.37,0.71 0,0.56 0.44,1.12 1.41,1.12 0.83,0 1.36,-0.44 1.36,-1.04 0,-0.37 -0.16,-0.66 -0.46,-0.85l0 -0.01zm-0.69 0.06c0.39,0 0.7,0.29 0.7,0.62 0,0.43 -0.42,0.66 -0.93,0.66 -0.55,0 -0.95,-0.24 -0.95,-0.68 0,-0.27 0.21,-0.6 0.68,-0.6l0.5 0z"/>
   </g>
  </g>
 </g>
</svg>